<?xml version="1.0" encoding="UTF-8"?>
<svg width="18px" height="18px" viewBox="0 0 18 18" version="1.1" xmlns="http://www.w3.org/2000/svg" xmlns:xlink="http://www.w3.org/1999/xlink">
    <!-- Generator: Sketch 52.5 (67469) - http://www.bohemiancoding.com/sketch -->
    <title>污水液位</title>
    <desc>Created with Sketch.</desc>
    <g id="Page-4" stroke="none" stroke-width="1" fill="none" fill-rule="evenodd">
        <g id="画板-copy-2" transform="translate(-1417.000000, -1003.000000)" fill-rule="nonzero">
            <g id="分组-5" transform="translate(1412.000000, 1000.000000)">
                <g id="污水液位" transform="translate(0.000000, 3.000000)">
                    <path d="M19.2127377,6.10734296 C18.7085361,4.91595399 17.9890904,3.8484223 17.072092,2.92833972 C16.1521451,2.00825714 15.0818222,1.29165437 13.8935574,0.787378343 C12.6581159,0.265408418 11.3519092,-1.95917513e-08 10.0014743,0 C8.65103937,1.95917513e-08 7.34188412,0.265408437 6.10939111,0.787378343 C4.92112633,1.29165437 3.85080347,2.01120613 2.93380509,2.92833972 C2.01385816,3.8484223 1.2944125,4.91890298 0.790210817,6.10734296 C0.265369309,7.34296667 0,8.64936597 0,9.99999999 C0,11.350634 0.265369309,12.6599823 0.787262262,13.892657 C1.29146394,15.084046 2.01090962,16.1515777 2.93085656,17.0716603 C3.85080349,17.9917428 4.9181778,18.7112946 6.10939111,19.2126216 C7.34188412,19.7345916 8.65103935,20 10.0014743,20 C11.3519092,20 12.6610644,19.7345916 13.8935574,19.2126216 C15.0847708,18.7083456 16.1521451,17.9887939 17.072092,17.0716603 C17.9920389,16.1515777 18.7114846,15.084046 19.2127377,13.892657 C19.7346307,12.6570333 20,11.350634 20,9.99999999 C20,8.64936595 19.7346307,7.34296667 19.2127377,6.10734296 Z M16.1344538,16.1368328 C14.4950612,17.7735181 12.3160843,18.6788558 10.0014743,18.6788558 C7.68391568,18.6788558 5.50493882,17.7764671 3.86849476,16.1368328 C2.22910217,14.4971985 1.32684652,12.3179003 1.32684652,10.002949 C1.32684652,7.68504866 2.22910217,5.50869949 3.86849476,3.86906517 C5.50788736,2.22943085 7.68686421,1.32704217 10.0014743,1.32704217 C12.3190329,1.32704217 14.4950612,2.22943085 16.1344538,3.86906517 C17.7708978,5.50869949 18.676102,7.68799763 18.676102,10.002949 C18.6702049,12.3179003 17.7708978,14.4971985 16.1344538,16.1368328 Z" id="形状"></path>
                    <path d="M14.0277661,2.08270352e-05 C9.04556181,-0.010562716 5.0026472,4.01383332 5.0000013,8.98545737 C4.99735543,13.9703109 9.01910295,17.9973528 13.9960155,17.9999987 C18.9623445,18.0026446 22.9920297,13.9967698 22.9999674,9.03837514 C23.0131968,4.05087576 19.0020328,0.0106043876 14.0277661,2.08270352e-05 Z M6,9 C6.01360081,8.66304347 6.04352261,8.32971014 6.08160489,8 L21.9183951,8 C21.9564774,8.32971014 21.983679,8.66304349 22,9 L6,9 Z M14.2352602,1.00001409 C17.0798925,0.994659618 19.5991934,2.51533261 21,4.7776014 C20.2821202,4.58751727 19.5158441,4.82311451 18.9162666,5.48439308 C18.3328212,6.15638061 17.4778183,6.15638061 16.8970616,5.48439308 C15.9640868,4.45365524 14.6304974,4.45365524 13.6975226,5.48439308 C13.1140772,6.15638061 12.2590743,6.15638061 11.6783176,5.48439308 C10.7453428,4.45365524 9.4117534,4.45365524 8.47877858,5.48439308 C8.20184368,5.82172547 7.8523142,6.01984133 7.4839639,5.99842338 C7.30113309,5.98771441 7.14250048,5.91275166 7,5.72266754 C8.22873056,2.9570774 11.0169003,1.00536857 14.2352602,1.00001409 Z" id="形状" fill="#8796B0"></path>
                </g>
            </g>
        </g>
    </g>
</svg>