<?xml version="1.0" encoding="UTF-8"?>
<svg width="12px" height="20px" viewBox="0 0 12 20" version="1.1" xmlns="http://www.w3.org/2000/svg" xmlns:xlink="http://www.w3.org/1999/xlink">
    <!-- Generator: Sketch 52.5 (67469) - http://www.bohemiancoding.com/sketch -->
    <title>电 (1)</title>
    <desc>Created with Sketch.</desc>
    <g id="Page-4" stroke="none" stroke-width="1" fill="none" fill-rule="evenodd">
        <g id="画板-copy-2" transform="translate(-946.000000, -1002.000000)" fill="#8796B0">
            <g id="分组-4" transform="translate(946.000000, 1000.000000)">
                <g id="分组-6">
                    <g id="电-(1)" transform="translate(0.000000, 2.000000)">
                        <path d="M11.5840817,7.94086763 L9.31619051,7.94086763 C8.8266457,7.94086763 7.45791841,8.18076655 6.98835505,7.8908887 C6.89843866,7.56102769 7.19815997,6.96128041 7.27808563,6.67140254 C7.51786269,5.83175633 7.74764902,5.00210591 7.97743535,4.16245971 L8.99648779,0.504001224 C9.12636703,0.0242033962 8.50694299,-0.175712364 8.24718453,0.184135993 L0.0647928465,11.4293977 C-0.125030651,11.6892882 0.134727827,12.0491366 0.424458416,12.0491366 L3.74137422,12.0491366 C3.97116055,12.0491366 4.85034306,11.9091955 4.990213,12.1191071 C5.12009224,12.2990313 4.87032448,12.8388039 4.81038021,13.0387196 C4.20094688,15.1978099 3.60150428,17.3469043 3.00206166,19.4959988 C2.87218242,19.9757966 3.49160647,20.1757124 3.75136492,19.815864 L11.9337566,8.57060229 C12.1235801,8.300716 11.8738123,7.94086763 11.5840817,7.94086763 Z" id="路径"></path>
                    </g>
                </g>
            </g>
        </g>
    </g>
</svg>