<?xml version="1.0" encoding="UTF-8"?>
<svg width="20px" height="21px" viewBox="0 0 20 21" version="1.1" xmlns="http://www.w3.org/2000/svg" xmlns:xlink="http://www.w3.org/1999/xlink">
    <!-- Generator: Sketch 52.5 (67469) - http://www.bohemiancoding.com/sketch -->
    <title>绿色钩 36 copy</title>
    <desc>Created with Sketch.</desc>
    <g id="Page-4" stroke="none" stroke-width="1" fill="none" fill-rule="evenodd">
        <g id="画板-copy-2" transform="translate(-1723.000000, -726.000000)" fill="#7EFF40" fill-rule="nonzero">
            <g id="分组-3" transform="translate(1494.000000, 550.000000)">
                <g id="分组-12" transform="translate(25.000000, 176.000000)">
                    <g id="绿色钩-36-copy" transform="translate(204.000000, 0.388100)">
                        <path d="M10,20 C4.47722223,20 0,15.5227778 0,10 C0,4.47722223 4.47722223,0 10,0 C15.5227778,0 20,4.47722223 20,10 C20,15.5227778 15.5227778,20 10,20 Z M5.33333334,9.37388889 C4.94811473,9.05172278 4.37466611,9.10283693 4.0525,9.48805555 C3.73033389,9.87327416 3.78144805,10.4467228 4.16666666,10.7688889 L8.62777777,14.4966667 C9.01277777,14.8188889 9.58611111,14.7677778 9.90777777,14.3827778 L16.4355555,6.57333334 C16.6439605,6.32414059 16.7035918,5.98269428 16.5919871,5.67761394 C16.4803823,5.3725336 16.2144968,5.15016818 15.894487,5.09428059 C15.5744773,5.038393 15.2489605,5.1574739 15.0405555,5.40666666 L9.09611111,12.5188889 L5.33333334,9.37388889 Z" id="形状"></path>
                    </g>
                </g>
            </g>
        </g>
    </g>
</svg>