<?xml version="1.0" encoding="UTF-8"?>
<svg width="18px" height="18px" viewBox="0 0 18 18" version="1.1" xmlns="http://www.w3.org/2000/svg" xmlns:xlink="http://www.w3.org/1999/xlink">
    <!-- Generator: Sketch 52.5 (67469) - http://www.bohemiancoding.com/sketch -->
    <title>污水</title>
    <desc>Created with Sketch.</desc>
    <g id="Page-4" stroke="none" stroke-width="1" fill="none" fill-rule="evenodd">
        <g id="画板-copy-2" transform="translate(-1846.000000, -1003.000000)">
            <g id="分组-7" transform="translate(1846.000000, 1000.000000)">
                <g id="污水" transform="translate(0.000000, 3.000000)">
                    <path d="M1,10 C1,5.02943725 5.02943725,1 10,1 L10,6.625 C8.13603897,6.625 6.625,8.13603897 6.625,10 L1,10 Z" id="路径" fill="#70809C"></path>
                    <path d="M11.25,1.125 L16.875,1.125 L16.875,6.75 L11.25,6.75 L11.25,1.125 Z M16.875,0 L18,0 L18,7.875 L16.875,7.875 L16.875,0 Z M6.75,11.25 L6.75,16.875 L1.125,16.875 L1.125,11.25 L6.75,11.25 Z M7.875,16.875 L7.875,18 L0,18 L0,16.875 L7.875,16.875 Z" id="形状" fill="#8796B0" fill-rule="nonzero"></path>
                </g>
            </g>
        </g>
    </g>
</svg>