<?xml version="1.0" encoding="UTF-8"?>
<svg width="14px" height="17px" viewBox="0 0 14 17" version="1.1" xmlns="http://www.w3.org/2000/svg" xmlns:xlink="http://www.w3.org/1999/xlink">
    <!-- Generator: Sketch 52.5 (67469) - http://www.bohemiancoding.com/sketch -->
    <title>水</title>
    <desc>Created with Sketch.</desc>
    <g id="Page-4" stroke="none" stroke-width="1" fill="none" fill-rule="evenodd">
        <g id="画板-copy-2" transform="translate(-496.000000, -1004.000000)" fill="#8796B0" fill-rule="nonzero">
            <g id="分组-2" transform="translate(496.000000, 1000.000000)">
                <g id="水" transform="translate(0.000000, 4.000000)">
                    <path d="M13.1859864,8.26064898 C12.0638068,6.01969713 10.4922742,4.00165773 8.80658095,2.04025124 C8.22458721,1.36261087 7.60963375,0.70454043 6.97617293,0 C6.63934956,0.361681047 6.33067454,0.685016326 6.03165871,1.01505562 C4.39901811,2.81417599 2.87810521,4.67456406 1.626538,6.68113486 C1.1088599,7.51233391 0.641008685,8.36037699 0.317006529,9.25217944 C-0.0744915058,10.4800915 -0.252894987,12.1417794 0.685969487,13.7529735 C0.94802523,14.1833898 1.27764975,14.5882423 1.66831856,14.9714709 C2.72214566,16.0040806 4.06618598,16.6547446 5.63933145,16.8925158 C7.50431212,17.1747412 9.30088565,16.9086803 10.8869161,16.0054016 C12.4841548,15.0960831 13.4898135,13.8142717 13.8764273,12.2259844 C14.2125399,10.8444908 13.8234476,9.53442016 13.1859864,8.26064898 Z M5.80656307,4.4900432 C5.2888941,6.02847803 4.74064375,7.55951401 4.25834017,9.10602726 C3.9778044,10.0079392 3.81623159,10.9374689 3.91910199,11.875749 C4.0243872,12.8389592 4.27281983,13.7812556 4.63774597,14.7006988 C4.66913835,14.7808568 4.6892404,14.8643898 4.73985094,15.0246754 C4.11686942,14.5814619 3.45447656,14.3208222 2.99709554,13.8035132 C2.46980381,13.2080696 2.10642677,12.5587343 1.92076068,11.8541938 C1.66514745,10.8876316 1.76157534,9.917664 2.30658166,9.03059558 C3.12815073,7.69150985 4.00754739,6.3780338 4.87011338,5.05716651 C5.2977514,4.40178379 5.74306753,3.75380756 6.18037386,3.10244114 C6.20447628,3.10717518 6.22945351,3.11122202 6.25351945,3.11523834 C6.10478609,3.57397494 5.96010778,4.03267335 5.80656307,4.4900432 Z" id="形状"></path>
                </g>
            </g>
        </g>
    </g>
</svg>